<?xml version="1.0" encoding="utf-8"?>
<!-- Generator: Adobe Illustrator 15.0.0, SVG Export Plug-In . SVG Version: 6.00 Build 0)  -->
<!DOCTYPE svg PUBLIC "-//W3C//DTD SVG 1.1//EN" "http://www.w3.org/Graphics/SVG/1.1/DTD/svg11.dtd">
<svg version="1.1" id="Layer_1" xmlns="http://www.w3.org/2000/svg" xmlns:xlink="http://www.w3.org/1999/xlink" x="0px" y="0px"
	 width="512px" height="512px" viewBox="0 0 512 512" enable-background="new 0 0 512 512" xml:space="preserve">
<g>
	<path fill="#0071B5" d="M28.333,302.876v-43.601l65.479-37.643v43.602L28.333,302.876z M39.15,265.535v18.646l43.849-25.205
		v-18.648L39.15,265.535z"/>
	<path fill="none" stroke="#000000" stroke-width="10.8166" stroke-miterlimit="10" d="M88.407,294.472"/>
	<path fill="#002A41" d="M93.812,302.876l-65.479-37.642v-43.598l65.479,37.619V302.876z M39.15,258.976l43.849,25.205v-18.663
		L39.15,240.321V258.976z"/>
	<polygon fill="#0071B5" points="28.333,302.876 61.074,284.056 61.074,271.576 39.15,284.181 39.15,265.535 61.074,252.93 
		61.074,240.456 28.333,259.275 	"/>
</g>
<g>
	<path fill="#002A41" d="M120.732,239.688h12.421c5.596,0,9.705,0.95,12.328,2.85c2.622,1.9,3.934,4.771,3.934,8.611
		c0,2.623-0.8,4.807-2.4,6.552s-3.938,2.865-7.016,3.36v0.186c3.613,0.537,6.272,1.679,7.977,3.423
		c1.703,1.745,2.555,4.177,2.555,7.295c0,4.172-1.384,7.383-4.15,9.634c-2.768,2.251-6.69,3.376-11.771,3.376h-13.877V239.688z
		 M123.892,259.854h9.975c4.253,0,7.346-0.707,9.276-2.121c1.931-1.415,2.896-3.63,2.896-6.645c0-3.015-1.09-5.204-3.268-6.567
		c-2.179-1.363-5.426-2.044-9.742-2.044h-9.138V259.854z M123.892,262.642v19.545h10.655c8.384,0,12.576-3.407,12.576-10.222
		c0-6.216-4.419-9.323-13.257-9.323H123.892z"/>
	<path fill="#002A41" d="M181.531,268.991h-18.399l-6.319,15.983h-3.5l18.214-45.472h2.013l17.842,45.472h-3.562L181.531,268.991z
		 M164.277,266.142h16.2l-6.164-16.324c-0.516-1.28-1.136-3.056-1.858-5.328c-0.558,1.982-1.167,3.779-1.827,5.39L164.277,266.142z"
		/>
	<path fill="#002A41" d="M214.825,241.888c-5.679,0-10.149,1.817-13.412,5.452c-3.263,3.635-4.894,8.611-4.894,14.93
		c0,6.464,1.538,11.481,4.615,15.054c3.076,3.573,7.475,5.359,13.195,5.359c3.799,0,7.289-0.485,10.47-1.456v2.788
		c-2.994,1.053-6.732,1.579-11.213,1.579c-6.361,0-11.368-2.054-15.023-6.164c-3.655-4.108-5.482-9.85-5.482-17.222
		c0-4.604,0.872-8.663,2.617-12.174c1.745-3.51,4.254-6.221,7.527-8.131c3.272-1.91,7.077-2.865,11.414-2.865
		c4.419,0,8.374,0.826,11.863,2.478l-1.27,2.85C221.929,242.714,218.46,241.888,214.825,241.888z"/>
	<path fill="#002A41" d="M263.843,284.975h-3.871l-17.378-23.913l-6.04,5.328v18.585h-3.159v-45.286h3.159v23.541l5.019-5.018
		l17.748-18.523h4.027l-18.555,19.143L263.843,284.975z"/>
	<path fill="#002A41" d="M269.855,239.688h12.421c5.596,0,9.705,0.95,12.328,2.85c2.622,1.9,3.934,4.771,3.934,8.611
		c0,2.623-0.8,4.807-2.4,6.552s-3.938,2.865-7.016,3.36v0.186c3.613,0.537,6.272,1.679,7.977,3.423
		c1.703,1.745,2.555,4.177,2.555,7.295c0,4.172-1.384,7.383-4.15,9.634c-2.768,2.251-6.69,3.376-11.771,3.376h-13.877V239.688z
		 M273.015,259.854h9.975c4.253,0,7.346-0.707,9.276-2.121c1.931-1.415,2.896-3.63,2.896-6.645c0-3.015-1.09-5.204-3.268-6.567
		c-2.179-1.363-5.426-2.044-9.742-2.044h-9.138V259.854z M273.015,262.642v19.545h10.655c8.384,0,12.576-3.407,12.576-10.222
		c0-6.216-4.419-9.323-13.257-9.323H273.015z"/>
	<path fill="#002A41" d="M346.497,262.27c0,7.187-1.796,12.87-5.39,17.052c-3.593,4.182-8.549,6.272-14.868,6.272
		c-6.299,0-11.244-2.091-14.837-6.272c-3.594-4.182-5.39-9.886-5.39-17.113c0-7.207,1.812-12.881,5.436-17.021
		c3.624-4.14,8.575-6.21,14.854-6.21c6.318,0,11.264,2.081,14.837,6.242C344.711,249.379,346.497,255.063,346.497,262.27z
		 M309.451,262.27c0,6.484,1.444,11.497,4.336,15.039c2.891,3.541,7.042,5.312,12.452,5.312c5.452,0,9.618-1.755,12.499-5.266
		c2.881-3.51,4.32-8.538,4.32-15.085c0-6.525-1.439-11.528-4.32-15.007s-7.027-5.22-12.437-5.22c-5.39,0-9.546,1.755-12.468,5.266
		C310.911,250.819,309.451,255.806,309.451,262.27z"/>
	<path fill="#002A41" d="M388.291,284.975h-3.19l-26.825-40.206h-0.247c0.247,4.791,0.371,8.405,0.371,10.841v29.365h-3.035v-45.286
		h3.159l26.794,40.145h0.186c-0.186-3.718-0.278-7.249-0.278-10.594v-29.551h3.066V284.975z"/>
	<path fill="#002A41" d="M424.132,284.975h-24.749v-45.286h24.749v2.912h-21.59v17.129h20.382v2.912h-20.382v19.421h21.59V284.975z"
		/>
	<path fill="#002A41" d="M431.252,282.559c0-2.023,0.826-3.036,2.479-3.036c1.693,0,2.54,1.013,2.54,3.036
		c0,2.024-0.847,3.035-2.54,3.035C432.078,285.594,431.252,284.583,431.252,282.559z"/>
	<path fill="#002A41" d="M438.901,296.404c-1.899,0-3.458-0.278-4.677-0.836v-2.726c1.61,0.412,3.149,0.619,4.615,0.619
		c4.997,0,7.496-2.726,7.496-8.178v-45.596h3.159v45.286C449.495,292.595,445.964,296.404,438.901,296.404z"/>
	<path fill="#002A41" d="M484.882,273.297c0,3.779-1.389,6.773-4.166,8.982c-2.778,2.21-6.47,3.314-11.074,3.314
		c-5.534,0-9.778-0.609-12.73-1.827v-3.159c3.263,1.384,7.423,2.075,12.482,2.075c3.718,0,6.665-0.852,8.844-2.556
		s3.269-3.938,3.269-6.706c0-1.714-0.362-3.134-1.085-4.259c-0.723-1.126-1.899-2.153-3.531-3.083
		c-1.631-0.929-4.026-1.93-7.186-3.004c-4.626-1.59-7.821-3.31-9.587-5.157c-1.766-1.848-2.648-4.311-2.648-7.388
		c0-3.386,1.326-6.148,3.98-8.286c2.653-2.138,6.065-3.206,10.237-3.206c4.254,0,8.249,0.805,11.987,2.416l-1.146,2.726
		c-3.759-1.569-7.352-2.354-10.779-2.354c-3.346,0-6.009,0.774-7.991,2.323s-2.974,3.655-2.974,6.319
		c0,1.673,0.304,3.046,0.913,4.12s1.605,2.04,2.989,2.896c1.384,0.856,3.759,1.884,7.125,3.082c3.531,1.218,6.184,2.4,7.96,3.546
		c1.776,1.146,3.071,2.447,3.888,3.903C484.474,269.472,484.882,271.232,484.882,273.297z"/>
</g>
</svg>
