<?xml version="1.0" encoding="utf-8"?>
<!-- Generator: Adobe Illustrator 15.0.0, SVG Export Plug-In . SVG Version: 6.00 Build 0)  -->
<!DOCTYPE svg PUBLIC "-//W3C//DTD SVG 1.1//EN" "http://www.w3.org/Graphics/SVG/1.1/DTD/svg11.dtd">
<svg version="1.1" id="Layer_1" xmlns="http://www.w3.org/2000/svg" xmlns:xlink="http://www.w3.org/1999/xlink" x="0px" y="0px"
	 width="512px" height="512px" viewBox="0 0 512 512" enable-background="new 0 0 512 512" xml:space="preserve">
<g>
	<path fill="#0071B5" d="M196.738,261.948v-78.149L314.1,116.327v78.151L196.738,261.948z M216.125,195.017v33.423l78.595-45.179
		v-33.425L216.125,195.017z"/>
	<path fill="none" stroke="#000000" stroke-width="19.3874" stroke-miterlimit="10" d="M304.412,246.885"/>
	<path fill="#002A41" d="M314.1,261.948l-117.362-67.47v-78.142L314.1,183.766V261.948z M216.125,183.261l78.595,45.179v-33.452
		l-78.595-45.161V183.261z"/>
	<polygon fill="#0071B5" points="196.738,261.948 255.422,228.215 255.422,205.851 216.125,228.439 216.125,195.017 
		255.422,172.424 255.422,150.068 196.738,183.799 	"/>
</g>
<g>
	<path fill="#002A41" d="M37.073,292.87h14.636c6.594,0,11.436,1.119,14.526,3.357c3.09,2.239,4.635,5.621,4.635,10.146
		c0,3.091-0.943,5.664-2.829,7.72c-1.886,2.057-4.642,3.376-8.267,3.96v0.219c4.258,0.633,7.391,1.978,9.398,4.033
		c2.007,2.057,3.011,4.922,3.011,8.596c0,4.915-1.63,8.699-4.891,11.351c-3.261,2.652-7.884,3.979-13.869,3.979H37.073V292.87z
		 M40.796,316.63h11.753c5.012,0,8.656-0.833,10.931-2.5c2.275-1.666,3.413-4.275,3.413-7.829c0-3.552-1.284-6.132-3.851-7.737
		c-2.567-1.605-6.394-2.409-11.479-2.409H40.796V316.63z M40.796,319.915v23.03h12.556c9.878,0,14.818-4.015,14.818-12.044
		c0-7.324-5.208-10.986-15.621-10.986H40.796z"/>
	<path fill="#002A41" d="M110.006,327.397h-21.68L80.88,346.23h-4.125l21.461-53.58h2.373l21.023,53.58h-4.197L110.006,327.397z
		 M89.676,324.039h19.089l-7.263-19.234c-0.608-1.509-1.338-3.601-2.19-6.277c-0.657,2.336-1.375,4.452-2.153,6.351L89.676,324.039z
		"/>
	<path fill="#002A41" d="M148.99,295.461c-6.691,0-11.959,2.142-15.804,6.424c-3.845,4.283-5.767,10.146-5.767,17.593
		c0,7.616,1.812,13.528,5.438,17.738c3.625,4.209,8.808,6.313,15.548,6.313c4.477,0,8.589-0.571,12.336-1.715v3.284
		c-3.528,1.241-7.933,1.861-13.212,1.861c-7.495,0-13.395-2.42-17.702-7.263c-4.307-4.842-6.46-11.606-6.46-20.293
		c0-5.426,1.027-10.207,3.084-14.344c2.056-4.137,5.012-7.33,8.869-9.581c3.856-2.251,8.34-3.376,13.45-3.376
		c5.207,0,9.867,0.974,13.979,2.92l-1.497,3.357C157.36,296.435,153.272,295.461,148.99,295.461z"/>
	<path fill="#002A41" d="M207.996,346.23h-4.562l-20.476-28.177l-7.117,6.277v21.899h-3.723v-53.36h3.723v27.738l5.913-5.913
		l20.914-21.825h4.745l-21.862,22.556L207.996,346.23z"/>
	<path fill="#002A41" d="M216.374,292.87h14.636c6.594,0,11.436,1.119,14.526,3.357c3.09,2.239,4.635,5.621,4.635,10.146
		c0,3.091-0.943,5.664-2.829,7.72c-1.886,2.057-4.642,3.376-8.267,3.96v0.219c4.258,0.633,7.391,1.978,9.398,4.033
		c2.007,2.057,3.011,4.922,3.011,8.596c0,4.915-1.63,8.699-4.891,11.351c-3.261,2.652-7.884,3.979-13.869,3.979h-16.352V292.87z
		 M220.096,316.63h11.753c5.012,0,8.656-0.833,10.931-2.5c2.275-1.666,3.413-4.275,3.413-7.829c0-3.552-1.284-6.132-3.851-7.737
		c-2.567-1.605-6.394-2.409-11.479-2.409h-10.767V316.63z M220.096,319.915v23.03h12.556c9.878,0,14.818-4.015,14.818-12.044
		c0-7.324-5.208-10.986-15.621-10.986H220.096z"/>
	<path fill="#002A41" d="M304.955,319.478c0,8.467-2.117,15.165-6.351,20.092c-4.234,4.928-10.074,7.391-17.519,7.391
		c-7.422,0-13.249-2.463-17.483-7.391c-4.234-4.927-6.351-11.648-6.351-20.165c0-8.492,2.135-15.178,6.405-20.056
		c4.271-4.879,10.104-7.318,17.501-7.318c7.446,0,13.273,2.451,17.483,7.354C302.85,304.288,304.955,310.985,304.955,319.478z
		 M261.303,319.478c0,7.641,1.703,13.547,5.11,17.72c3.406,4.173,8.297,6.26,14.672,6.26c6.423,0,11.333-2.068,14.727-6.205
		c3.394-4.137,5.091-10.062,5.091-17.774c0-7.689-1.697-13.584-5.091-17.684c-3.395-4.101-8.28-6.15-14.654-6.15
		c-6.351,0-11.248,2.068-14.69,6.205C263.024,305.985,261.303,311.861,261.303,319.478z"/>
	<path fill="#002A41" d="M352.502,346.23h-3.759l-31.608-47.375h-0.292c0.292,5.646,0.438,9.903,0.438,12.774v34.601h-3.577v-53.36
		h3.723l31.571,47.302h0.219c-0.219-4.38-0.329-8.541-0.329-12.482V292.87h3.613V346.23z"/>
	<path fill="#002A41" d="M392.963,346.23h-29.162v-53.36h29.162v3.431h-25.439v20.184h24.016v3.431h-24.016V342.8h25.439V346.23z"/>
	<path fill="#002A41" d="M404.074,343.384c0-2.385,0.973-3.577,2.92-3.577c1.995,0,2.993,1.192,2.993,3.577
		s-0.998,3.576-2.993,3.576C405.047,346.96,404.074,345.769,404.074,343.384z"/>
	<path fill="#002A41" d="M415.853,359.698c-2.238,0-4.075-0.328-5.511-0.985v-3.212c1.898,0.486,3.711,0.73,5.438,0.73
		c5.888,0,8.833-3.212,8.833-9.636V292.87h3.723v53.36C428.335,355.209,424.175,359.698,415.853,359.698z"/>
	<path fill="#002A41" d="M471.265,332.471c0,4.453-1.637,7.981-4.909,10.584c-3.273,2.604-7.623,3.905-13.048,3.905
		c-6.521,0-11.521-0.718-15.001-2.153v-3.723c3.844,1.631,8.747,2.445,14.709,2.445c4.38,0,7.853-1.004,10.42-3.011
		c2.567-2.008,3.851-4.641,3.851-7.902c0-2.02-0.426-3.691-1.277-5.019c-0.852-1.325-2.239-2.536-4.161-3.631
		c-1.922-1.096-4.745-2.275-8.468-3.541c-5.451-1.873-9.216-3.898-11.296-6.077c-2.081-2.177-3.121-5.078-3.121-8.704
		c0-3.99,1.563-7.245,4.69-9.764c3.126-2.519,7.147-3.777,12.062-3.777c5.012,0,9.721,0.948,14.125,2.847l-1.351,3.212
		c-4.429-1.849-8.663-2.774-12.701-2.774c-3.942,0-7.081,0.913-9.417,2.737c-2.336,1.825-3.504,4.308-3.504,7.446
		c0,1.971,0.358,3.589,1.077,4.854c0.717,1.266,1.892,2.403,3.522,3.412c1.63,1.01,4.428,2.221,8.395,3.632
		c4.161,1.436,7.287,2.828,9.38,4.179c2.092,1.351,3.619,2.884,4.581,4.599C470.784,327.963,471.265,330.038,471.265,332.471z"/>
</g>
</svg>
