<?xml version="1.0" encoding="utf-8"?>
<!-- Generator: Adobe Illustrator 14.0.0, SVG Export Plug-In . SVG Version: 6.00 Build 43363)  -->
<!DOCTYPE svg PUBLIC "-//W3C//DTD SVG 1.1//EN" "http://www.w3.org/Graphics/SVG/1.1/DTD/svg11.dtd">
<svg version="1.1" xmlns="http://www.w3.org/2000/svg" xmlns:xlink="http://www.w3.org/1999/xlink" x="0px" y="0px"
	 width="890.447px" height="236.988px" viewBox="0 -322.308 890.447 236.988" enable-background="new 0 -322.308 890.447 236.988"
	 xml:space="preserve">
<g id="Layer_1">
	<g>
		<path fill="#5C8BEE" d="M533.978-145.191l9.741,2.25c1.562-8.878,1.592-18.141-0.166-27.415l-9.677,2.628
			C535.234-160.106,535.204-152.503,533.978-145.191z"/>
		<path fill="#5C8BEE" d="M555.055-140.328l12.187,2.812c2.398-12.648,2.397-25.917-0.37-39.173l-12.086,3.282
			C557.028-162.217,557.018-151.021,555.055-140.328z"/>
		<path fill="#5C8BEE" d="M578.517-134.915l14.623,3.374c3.334-16.794,3.32-34.482-0.599-52.118l-14.491,3.936
			C581.316-164.561,581.32-149.367,578.517-134.915z"/>
	</g>
	<g>
		<path fill="#5C8BEE" d="M392.344-145.191l-9.741,2.25c-1.562-8.878-1.592-18.141,0.166-27.415l9.677,2.628
			C391.087-160.106,391.117-152.503,392.344-145.191z"/>
		<path fill="#5C8BEE" d="M371.267-140.328l-12.187,2.812c-2.398-12.648-2.397-25.917,0.37-39.173l12.086,3.282
			C369.293-162.217,369.304-151.021,371.267-140.328z"/>
		<path fill="#5C8BEE" d="M347.805-134.915l-14.623,3.374c-3.334-16.794-3.32-34.482,0.599-52.118l14.491,3.936
			C345.005-164.561,345.001-149.367,347.805-134.915z"/>
	</g>
</g>
<g id="labels">
	<g>
		<g>
			<path d="M684.365-128.525l-9.545-53.396h8.44l6.693,41.621l6.75-41.621h8.445l-9.716,53.396H684.365L684.365-128.525z"/>
		</g>
		<path d="M689.988-95.184c-33.771,0-61.229-27.465-61.229-61.229c0-33.759,27.467-61.225,61.229-61.225
			c33.762,0,61.227,27.465,61.227,61.225C751.215-122.646,723.748-95.184,689.988-95.184L689.988-95.184z M689.988-209.632
			c-29.354,0-53.229,23.876-53.229,53.224c0,29.354,23.877,53.229,53.229,53.229c29.35,0,53.227-23.877,53.227-53.229
			C743.215-185.755,719.338-209.632,689.988-209.632L689.988-209.632z"/>
	</g>
	<g>
		<g>
			<path d="M231.792-128.525h-8.055v-53.439h11.559l7.506,38.386l7.205-38.386h11.104v53.438h-8.054v-33.58l-6.988,33.58h-6.477
				l-7.799-33.494L231.792-128.525L231.792-128.525z"/>
		</g>
		<path d="M242.424-95.184c-33.76,0-61.225-27.465-61.225-61.229c0-33.759,27.465-61.225,61.225-61.225
			c33.76,0,61.225,27.465,61.225,61.225C303.649-122.646,276.184-95.184,242.424-95.184L242.424-95.184z M242.424-209.632
			c-29.349,0-53.225,23.876-53.225,53.224c0,29.354,23.876,53.229,53.225,53.229c29.349,0,53.225-23.877,53.225-53.229
			C295.649-185.755,271.773-209.632,242.424-209.632L242.424-209.632z"/>
	</g>
	<g>
		<path d="M463.247-95.184c-33.76,0-61.225-27.465-61.225-61.229c0-33.759,27.465-61.225,61.225-61.225
			c33.76,0,61.225,27.465,61.225,61.225C524.472-122.646,497.007-95.184,463.247-95.184L463.247-95.184z M463.247-209.632
			c-29.349,0-53.225,23.876-53.225,53.224c0,29.354,23.876,53.229,53.225,53.229c29.349,0,53.225-23.877,53.225-53.229
			C516.472-185.755,492.596-209.632,463.247-209.632L463.247-209.632z"/>
		<g>
			<path d="M462.438-185.931c4.488,0,7.784,1.236,9.886,3.708c1.847,2.159,2.77,5.171,2.77,9.034v7.755
				c0,3.779-1.435,6.975-4.304,9.588l5.965,23.31h-8.709l-4.883-20.114c-0.228,0-0.469,0-0.725,0h-4.645v20.114h-8.054v-53.395
				H462.438z M467.253-173.062c0-3.096-1.534-4.645-4.603-4.645h-4.858v17.088h4.858c1.279,0,2.365-0.454,3.26-1.363
				c0.895-0.909,1.342-2.003,1.342-3.281V-173.062z"/>
		</g>
	</g>
	<g>
		<path fill="#231F20" d="M615.215-256H311.28c-8.822,0-16-7.178-16-16v-28c0-8.822,7.178-16,16-16h303.935c8.822,0,16,7.178,16,16
			v28C631.215-263.178,624.037-256,615.215-256L615.215-256z M311.28-308c-4.411,0-8,3.589-8,8v28c0,4.411,3.589,8,8,8h303.935
			c4.411,0,8-3.589,8-8v-28c0-4.411-3.589-8-8-8H311.28L311.28-308z"/>
		<path fill="#BED1F8" d="M600.51-273.636c0,3.313-2.687,6-6,6H484.722c-3.313,0-6-2.687-6-6v-23.887c0-3.313,2.687-6,6-6H594.51
			c3.313,0,6,2.687,6,6V-273.636z"/>
		<g>
			<path d="M324.363-283.92v7.92h-2.819v-18.688h2.819v7.935h3.4v-7.935h2.819V-276h-2.819v-7.92H324.363z"/>
			<path d="M335.847-291.855h-2.998v-2.833h8.8v2.833h-2.983V-276h-2.819V-291.855z"/>
			<path d="M346.585-291.855h-2.998v-2.833h8.8v2.833h-2.983V-276h-2.819V-291.855z"/>
			<path d="M359.099-294.688c1.372,0,2.466,0.432,3.281,1.297c0.755,0.825,1.133,1.879,1.133,3.162v2.714
				c0,1.233-0.43,2.287-1.29,3.162s-1.901,1.312-3.125,1.312h-1.625v7.04h-2.819v-18.688H359.099z M360.785-290.184
				c0-0.487-0.147-0.88-0.44-1.178c-0.293-0.298-0.684-0.447-1.171-0.447h-1.7v5.981h1.7c0.447,0,0.828-0.159,1.141-0.478
				c0.313-0.318,0.47-0.701,0.47-1.148V-290.184z"/>
			<path d="M365.452-286.739h2.819v2.834h-2.819V-286.739z M365.452-278.804h2.819V-276h-2.819V-278.804z"/>
			<path d="M378.023-295.882h2.299l-7.801,20.448h-2.298L378.023-295.882z"/>
			<path d="M390.06-295.882h2.299l-7.801,20.448h-2.298L390.06-295.882z"/>
			<path d="M404.692-276h-3.026l-2.163-5.951l-2.18,5.951h-3.026l3.669-9.396l-3.669-9.292h3.117l2.088,5.772l2.073-5.772h3.117
				l-3.669,9.292L404.692-276z"/>
			<path d="M410.405-283.83l-3.773-10.873h3.103l2.088,6.711l2.073-6.711h3.117l-3.788,10.873v7.83h-2.819V-283.83z"/>
			<path d="M427.185-294.688v2.833l-5.191,13.05h5.191V-276h-8.233v-2.822l5.206-13.047l-5.206,0.015v-2.833H427.185z"/>
			<path d="M429.123-278.804h2.819v2.819h-2.819V-278.804z"/>
			<path d="M438.355-275.761c-1.243,0-2.299-0.435-3.169-1.305s-1.305-1.921-1.305-3.154v-10.202c0-1.243,0.438-2.299,1.312-3.169
				s1.929-1.305,3.162-1.305c1.243,0,2.297,0.438,3.162,1.312c0.865,0.875,1.297,1.929,1.297,3.162v2.133h-2.923v-2.193
				c0-0.447-0.159-0.83-0.477-1.148c-0.318-0.318-0.701-0.477-1.148-0.477c-0.448,0-0.828,0.159-1.141,0.477
				c-0.313,0.318-0.47,0.701-0.47,1.148v10.232c0,0.447,0.157,0.828,0.47,1.141c0.313,0.313,0.693,0.47,1.141,0.47
				c0.447,0,0.83-0.156,1.148-0.47c0.318-0.313,0.477-0.693,0.477-1.141v-2.581h2.923v2.61c0,1.243-0.438,2.297-1.312,3.162
				C440.627-276.194,439.579-275.761,438.355-275.761z"/>
			<path d="M449.542-294.927c1.243,0,2.299,0.438,3.169,1.312s1.305,1.929,1.305,3.162v10.202c0,1.243-0.438,2.299-1.312,3.169
				c-0.875,0.871-1.929,1.305-3.162,1.305c-1.243,0-2.297-0.438-3.162-1.312s-1.298-1.929-1.298-3.162v-10.202
				c0-1.243,0.438-2.299,1.312-3.169S448.318-294.927,449.542-294.927z M451.078-290.512c0-0.447-0.157-0.828-0.47-1.141
				c-0.313-0.313-0.694-0.47-1.141-0.47c-0.448,0-0.831,0.157-1.148,0.47c-0.318,0.313-0.478,0.693-0.478,1.141v10.231
				c0,0.448,0.159,0.828,0.478,1.141c0.318,0.313,0.701,0.47,1.148,0.47c0.447,0,0.828-0.156,1.141-0.47
				c0.313-0.313,0.47-0.693,0.47-1.141V-290.512z"/>
			<path d="M459.31-276h-2.819v-18.703h4.045l2.627,13.436l2.522-13.436h3.886V-276h-2.819v-11.753L464.307-276h-2.267
				l-2.729-11.723V-276z"/>
			<path d="M479.309-295.882h2.299l-7.801,20.448h-2.298L479.309-295.882z"/>
			<path d="M495.442-286.813l-0.586,3.549h2.903l-0.433,2.834h-2.938l-0.73,4.43h-2.812l0.731-4.43h-2.446l-0.731,4.43h-2.812
				l0.73-4.43h-2.774l0.434-2.834h2.808l0.585-3.549h-2.768l0.433-2.834h2.803l0.836-5.071h2.812l-0.836,5.071h2.446l0.836-5.071
				h2.812l-0.836,5.071h2.91l-0.433,2.834H495.442z M492.615-286.813h-2.431l-0.57,3.549h2.431L492.615-286.813z"/>
			<path d="M509.618-280.475c0,1.233-0.434,2.287-1.299,3.162S506.411-276,505.188-276h-4.431v-18.703h4.431
				c1.232,0,2.279,0.438,3.139,1.312s1.291,1.924,1.291,3.147V-280.475z M503.577-278.789h1.699c0.449,0,0.826-0.162,1.135-0.485
				c0.309-0.323,0.463-0.703,0.463-1.141v-9.784c0-0.448-0.158-0.83-0.471-1.148s-0.689-0.478-1.127-0.478h-1.699V-278.789z"/>
			<path d="M512.093-276v-18.703h8.023v2.834h-5.205v5.101h3.804v2.834h-3.804v5.101h5.205V-276H512.093z"/>
			<path d="M522.056-276v-18.703h8.023v2.834h-5.205v5.101h3.804v2.834h-3.804v5.101h5.205V-276H522.056z"/>
			<path d="M536.463-294.688c1.372,0,2.466,0.432,3.281,1.297c0.756,0.825,1.134,1.879,1.134,3.162v2.714
				c0,1.233-0.431,2.287-1.29,3.162c-0.86,0.875-1.902,1.312-3.125,1.312h-1.626v7.04h-2.818v-18.688H536.463z M538.149-290.184
				c0-0.487-0.147-0.88-0.44-1.178s-0.684-0.447-1.171-0.447h-1.7v5.981h1.7c0.448,0,0.828-0.159,1.142-0.478
				c0.312-0.318,0.47-0.701,0.47-1.148V-290.184z"/>
			<path d="M542.817-286.754h8.351v2.833h-8.351V-286.754z"/>
			<path d="M560.789-276h-7.682v-18.688h2.818v15.884h4.863V-276z"/>
			<path d="M565.545-276h-2.818v-18.688h2.818V-276z"/>
			<path d="M571.23-294.703l3.742,12.57v-12.57h2.818V-276h-3.027l-3.879-11.977V-276h-2.818v-18.703H571.23z"/>
			<path d="M583.131-281.929V-276h-2.818v-18.703h2.818v6.667l3.445-6.667h3.006l-3.859,7.629L590.248-276h-3.314l-2.959-7.593
				L583.131-281.929z"/>
		</g>
	</g>
	<polygon fill="#5C8BEE" points="551.114,-272.054 521.116,-227.159 525.616,-224.096 503.007,-209.448 508.351,-235.85 
		512.85,-232.787 542.849,-277.682 	"/>
</g>
</svg>
