<?xml version="1.0" encoding="utf-8"?>
<!-- Generator: Adobe Illustrator 14.0.0, SVG Export Plug-In . SVG Version: 6.00 Build 43363)  -->
<!DOCTYPE svg PUBLIC "-//W3C//DTD SVG 1.1//EN" "http://www.w3.org/Graphics/SVG/1.1/DTD/svg11.dtd">
<svg version="1.1" id="Layer_1" xmlns="http://www.w3.org/2000/svg" xmlns:xlink="http://www.w3.org/1999/xlink" x="0px" y="0px"
	 width="890.447px" height="346.482px" viewBox="0 0 890.447 346.482" enable-background="new 0 0 890.447 346.482"
	 xml:space="preserve">
<g id="Layer_1_1_">
	<path fill="#5C8BEE" d="M100.65,272.563c0-4.285,3.486-7.771,7.771-7.771h39.413v5.441l24.834-10.438l-24.834-10.438v5.438h-39.413
		c-9.799,0-17.771,7.979-17.771,17.771c0,9.8,7.972,17.771,17.771,17.771h90.791v-10h-90.791
		C104.136,280.333,100.65,276.847,100.65,272.563z"/>
	<path fill="#231F20" d="M276.035,338.992h-62.506c-9.374,0-17-7.626-17-17V26c0-9.374,7.626-17,17-17h62.506
		c9.374,0,17,7.626,17,17v295.991C293.035,331.366,285.409,338.992,276.035,338.992L276.035,338.992z M213.529,88
		c-3.86,0-7,3.144-7,7v226.991c0,3.859,3.14,7,7,7h62.506c3.86,0,7-3.141,7-7V95c0-3.856-3.14-7-7-7H213.529L213.529,88z"/>
	
		<rect x="476.259" y="97.744" transform="matrix(0.9634 0.268 -0.268 0.9634 45.2397 -125.9041)" fill="#5C8BEE" width="15" height="10"/>
	
		<rect x="500.38" y="104.456" transform="matrix(0.9634 0.268 -0.268 0.9634 47.9063 -132.0947)" fill="#5C8BEE" width="15" height="10"/>
	
		<rect x="572.633" y="124.562" transform="matrix(0.9634 0.268 -0.268 0.9634 55.9542 -150.7542)" fill="#5C8BEE" width="15" height="10"/>
	<polygon fill="#5C8BEE" points="620.351,140.731 599.227,124.015 597.768,129.255 597.369,129.146 594.688,138.779 595.088,138.89 
		593.629,144.131 	"/>
	
		<rect x="548.558" y="117.812" transform="matrix(0.9634 0.2681 -0.2681 0.9634 53.2689 -144.5569)" fill="#5C8BEE" width="14.999" height="10.001"/>
	
		<rect x="452.184" y="91.045" transform="matrix(0.9634 0.268 -0.268 0.9634 42.5535 -119.6773)" fill="#5C8BEE" width="14.999" height="10"/>
	
		<rect x="524.507" y="111.122" transform="matrix(0.9634 0.2681 -0.2681 0.9634 50.6158 -138.3935)" fill="#5C8BEE" width="14.998" height="10"/>
	
		<rect x="428.089" y="84.341" transform="matrix(0.9634 0.268 -0.268 0.9634 39.872 -113.4586)" fill="#5C8BEE" width="15" height="10"/>
	
		<rect x="404.005" y="77.642" transform="matrix(0.9634 0.2681 -0.2681 0.9634 37.2111 -107.2796)" fill="#5C8BEE" width="14.999" height="10"/>
	
		<rect x="379.928" y="70.94" transform="matrix(0.9634 0.268 -0.268 0.9634 34.5225 -101.0489)" fill="#5C8BEE" width="14.999" height="10"/>
	<path fill="#5C8BEE" d="M307.704,59.048l9.66,2.688c1.812-9.263,1.844-18.525,0.335-27.414l-9.755,2.19
		C309.125,43.833,309.108,51.437,307.704,59.048z"/>
	<path fill="#5C8BEE" d="M328.577,64.857l12.063,3.354c2.852-13.235,2.935-26.507,0.612-39.17l-12.205,2.737
		C330.948,42.488,330.889,53.681,328.577,64.857z"/>
	<path fill="#5C8BEE" d="M351.802,71.319l14.466,4.021c4.027-17.608,4.151-35.299,0.923-52.109l-14.646,3.281
		C355.259,40.982,355.162,56.174,351.802,71.319z"/>
	<polygon fill="#5C8BEE" points="319.243,263.288 298.246,280.162 324.993,283.365 323.494,278.13 639.447,187.606 636.694,177.992 
		320.741,268.519 	"/>
	<g>
		<path d="M239.466,146.607h-4.027v-26.721h5.779l3.753,19.191l3.603-19.191h5.552v26.72h-4.027v-16.789l-3.494,16.789h-3.238
			l-3.899-16.746L239.466,146.607L239.466,146.607z"/>
	</g>
	<g>
		<path d="M239.466,223.607h-4.027v-26.721h5.779l3.753,19.191l3.603-19.191h5.552v26.72h-4.027v-16.789l-3.494,16.789h-3.238
			l-3.899-16.746L239.466,223.607L239.466,223.607z"/>
	</g>
	<g>
		<path d="M38.009,298.096c0,2.112-0.819,3.922-2.458,5.422c-1.639,1.5-3.616,2.25-5.933,2.25h-8.39v-32.062h8.391
			c2.335,0,4.317,0.75,5.947,2.25c1.629,1.5,2.444,3.302,2.444,5.396L38.009,298.096L38.009,298.096z M26.567,300.988h3.221
			c0.848,0,1.563-0.271,2.147-0.831c0.583-0.555,0.876-1.205,0.876-1.955v-16.771c0-0.771-0.297-1.425-0.89-1.974
			c-0.593-0.548-1.304-0.812-2.133-0.812h-3.221V300.988z"/>
		<path d="M41.682,305.768v-32.062h7.995c2.109,0,4.012,0.504,5.707,1.511c1.45,0.854,2.486,2.178,3.108,3.967
			c0.339,0.952,0.508,2.09,0.508,3.396c0,2.146-0.631,3.869-1.893,5.165c-0.528,0.546-1.149,0.964-1.865,1.253
			c1.187,0.407,2.193,1.225,3.023,2.434c0.545,0.812,0.951,1.875,1.215,3.172c0.131,0.666,0.197,1.398,0.197,2.227
			c0,2.027-0.424,3.75-1.271,5.165c-0.66,1.104-1.593,1.995-2.797,2.659c-1.356,0.75-2.703,1.125-4.04,1.125L41.682,305.768
			L41.682,305.768L41.682,305.768z M47.445,286.795h2.232c1.657,0,2.769-0.729,3.333-2.196c0.207-0.545,0.311-1.222,0.311-2.021
			c0-1.33-0.358-2.335-1.074-3.018c-0.66-0.632-1.516-0.946-2.571-0.946h-2.232L47.445,286.795L47.445,286.795z M47.445,300.988
			h2.232c1.808,0,3.061-0.845,3.757-2.53c0.245-0.575,0.367-1.239,0.367-1.989c0-1.79-0.377-3.099-1.13-3.908
			c-0.678-0.75-1.677-1.125-2.995-1.125h-2.232L47.445,300.988L47.445,300.988z"/>
	</g>
	<path fill="#231F20" d="M39.585,239.392C18.575,239.392,5,244.811,5,253.198v49.712c0,7.871,13.223,16.367,34.585,16.367
		s34.584-8.496,34.584-16.367v-49.712C74.169,244.811,60.596,239.392,39.585,239.392z M39.591,245.392
		c20.195,0,28.578,5.085,28.578,7.807c0,2.724-8.384,7.811-28.584,7.811S11,255.921,11,253.198
		C11,250.477,19.385,245.392,39.591,245.392z M39.585,313.278c-18.496,0-28.585-6.85-28.585-10.367v-41.304
		c5.911,3.419,15.886,5.399,28.585,5.399c12.698,0,22.673-1.98,28.584-5.399v41.304C68.169,306.428,58.08,313.278,39.585,313.278z"
		/>
	<polygon fill="#5C8BEE" points="822.016,138.984 785.604,138.984 785.604,133.54 760.771,143.984 785.604,154.424 785.604,148.984 
		822.016,148.984 	"/>
	<g>
		<path d="M684.365,184.713l-9.545-53.396h8.438l6.693,41.621l6.75-41.621h8.445l-9.718,53.396H684.365L684.365,184.713z"/>
	</g>
	<path d="M689.988,218.056c-33.771,0-61.229-27.468-61.229-61.229c0-33.759,27.467-61.225,61.229-61.225
		c33.762,0,61.227,27.465,61.227,61.225C751.215,190.594,723.748,218.056,689.988,218.056L689.988,218.056z M689.988,103.608
		c-29.354,0-53.229,23.876-53.229,53.224c0,29.354,23.877,53.229,53.229,53.229c29.35,0,53.227-23.877,53.227-53.229
		C743.215,127.485,719.338,103.608,689.988,103.608L689.988,103.608z"/>
	<path d="M864.363,157.821c0,0,8.649-9.795,8.649-27.766c0-10.746-8.844-19.492-19.487-19.492c-10.845,0-19.496,8.844-19.496,19.492
		c0,17.971,8.651,27.766,8.651,27.766c0,13.501-21.68,9.318-21.68,24.342v4.374c0,1.236,0.949,2.188,2.188,2.188h60.76
		c1.234,0,2.186-0.952,2.186-2.188v-4.374C886.041,166.948,864.363,171.322,864.363,157.821z"/>
	<g>
		<path fill="#231F20" d="M245.135,164.623c-17.812,0-32.303-14.491-32.303-32.303c0-17.812,14.491-32.304,32.303-32.304
			c17.812,0,32.303,14.488,32.303,32.304C277.438,150.13,262.947,164.623,245.135,164.623L245.135,164.623z M245.135,108.017
			c-13.4,0-24.303,10.899-24.303,24.304c0,13.4,10.902,24.303,24.303,24.303c13.401,0,24.303-10.899,24.303-24.303
			C269.438,118.917,258.536,108.017,245.135,108.017L245.135,108.017z"/>
	</g>
	<g>
		<path fill="#231F20" d="M245.135,241.797c-17.812,0-32.303-14.488-32.303-32.303c0-17.812,14.491-32.303,32.303-32.303
			c17.812,0,32.303,14.491,32.303,32.303C277.438,227.308,262.947,241.797,245.135,241.797L245.135,241.797z M245.135,185.194
			c-13.4,0-24.303,10.902-24.303,24.303c0,13.401,10.902,24.303,24.303,24.303c13.401,0,24.303-10.899,24.303-24.303
			C269.438,196.096,258.536,185.194,245.135,185.194L245.135,185.194z"/>
	</g>
	<g>
		<path fill="#231F20" d="M240.775,318.745c-3.032-0.376-5.988-1.18-8.786-2.387l3.17-7.348c2.102,0.906,4.322,1.513,6.601,1.795
			L240.775,318.745L240.775,318.745z M249.864,318.596l-1.251-7.902c2.263-0.358,4.462-1.036,6.534-2.015l3.416,7.231
			C255.804,317.214,252.877,318.118,249.864,318.596L249.864,318.596z M224.228,311.611c-2.351-1.94-4.414-4.2-6.132-6.715
			l6.605-4.517c1.294,1.896,2.849,3.6,4.62,5.062L224.228,311.611L224.228,311.611z M266.159,310.907l-5.296-5.996
			c1.722-1.521,3.219-3.271,4.449-5.21l6.752,4.291C270.431,306.563,268.444,308.889,266.159,310.907L266.159,310.907z
			 M214.072,296.732c-0.944-2.892-1.474-5.903-1.575-8.961l7.996-0.267c0.076,2.305,0.474,4.569,1.184,6.74L214.072,296.732
			L214.072,296.732z M275.812,295.696l-7.684-2.229c0.635-2.188,0.957-4.47,0.957-6.774c0-0.547-0.019-1.094-0.054-1.636
			l7.982-0.527c0.047,0.711,0.071,1.438,0.072,2.16C277.085,289.75,276.656,292.781,275.812,295.696L275.812,295.696z
			 M221.223,280.697l-7.755-1.965c0.749-2.955,1.915-5.787,3.466-8.42l6.893,4.061C222.661,276.351,221.785,278.479,221.223,280.697
			L221.223,280.697z M267.622,278.362c-0.784-2.149-1.871-4.178-3.229-6.03l6.449-4.729c1.807,2.462,3.252,5.158,4.296,8.021
			L267.622,278.362L267.622,278.362z M228.099,269.019l-5.493-5.816c2.219-2.095,4.716-3.863,7.422-5.256l3.66,7.113
			C231.65,266.109,229.77,267.441,228.099,269.019L228.099,269.019z M259.605,267.427c-1.822-1.403-3.826-2.538-5.955-3.375
			l2.92-7.445c2.833,1.107,5.497,2.619,7.917,4.482L259.605,267.427L259.605,267.427z M240.15,262.827l-1.517-7.854
			c2.958-0.57,6.051-0.729,9.078-0.454l-0.717,7.969C244.711,262.278,242.376,262.398,240.15,262.827L240.15,262.827z"/>
	</g>
	<g>
		<path fill="#FFFFFF" d="M243.446,75.439c-3.747,0-6.93-1.214-9.552-3.645c-2.621-2.427-3.933-5.359-3.933-8.802V34.528
			c0-3.468,1.318-6.415,3.955-8.844c2.638-2.429,5.813-3.644,9.529-3.644c3.745,0,6.922,1.224,9.528,3.662
			c2.608,2.442,3.911,5.384,3.911,8.823v5.951h-8.811V34.36c0-1.249-0.479-2.316-1.438-3.205c-0.959-0.888-2.112-1.332-3.462-1.332
			s-2.494,0.444-3.438,1.332c-0.943,0.889-1.415,1.956-1.415,3.205v28.549c0,1.249,0.473,2.311,1.415,3.185
			c0.944,0.874,2.091,1.312,3.438,1.312c1.35,0,2.502-0.438,3.462-1.312c0.959-0.874,1.438-1.936,1.438-3.185v-7.2h8.811v7.283
			c0,3.47-1.318,6.41-3.955,8.824C250.293,74.232,247.131,75.439,243.446,75.439z"/>
	</g>
	<g>
		<path d="M247.614,285.373h8.591v4.772h-8.591v8.591h-4.773v-8.591h-8.591v-4.772h8.591v-8.591h4.773V285.373L247.614,285.373z"/>
	</g>
</g>
<g id="labels">
	<g>
		<path fill="#BFBFBF" d="M123.738,322.026c0.02,1.303-0.318,2.416-1.014,3.341c-0.458,0.626-1.104,1.069-1.939,1.327
			c-0.447,0.139-0.969,0.209-1.566,0.209c-1.104,0-2.019-0.273-2.744-0.82c-0.607-0.446-1.086-1.057-1.439-1.827
			c-0.353-0.77-0.559-1.651-0.619-2.646l2.685-0.193c0.119,1.09,0.407,1.879,0.865,2.368c0.338,0.37,0.726,0.545,1.164,0.524
			c0.616-0.021,1.108-0.322,1.477-0.91c0.188-0.289,0.283-0.701,0.283-1.238c0-0.776-0.353-1.549-1.059-2.312
			c-0.557-0.527-1.392-1.318-2.505-2.373c-0.935-0.906-1.596-1.719-1.984-2.436c-0.417-0.807-0.626-1.682-0.626-2.627
			c0-1.702,0.572-2.991,1.715-3.867c0.706-0.525,1.581-0.791,2.625-0.791c1.004,0,1.864,0.226,2.58,0.671
			c0.557,0.351,1.007,0.837,1.35,1.464c0.343,0.627,0.549,1.348,0.619,2.16l-2.699,0.492c-0.08-0.766-0.298-1.359-0.656-1.789
			c-0.259-0.309-0.632-0.463-1.119-0.463c-0.517,0-0.91,0.229-1.178,0.688c-0.219,0.367-0.328,0.824-0.328,1.372
			c0,0.854,0.368,1.725,1.104,2.607c0.278,0.339,0.696,0.736,1.253,1.193c0.656,0.547,1.089,0.93,1.297,1.146
			c0.696,0.697,1.233,1.385,1.611,2.061c0.179,0.316,0.323,0.609,0.433,0.88C123.589,320.903,123.729,321.498,123.738,322.026z"/>
		<path fill="#BFBFBF" d="M128.481,318.849l-3.773-10.873h3.103l2.088,6.712l2.073-6.712h3.117l-3.788,10.873v7.83h-2.819
			L128.481,318.849L128.481,318.849z"/>
		<path fill="#BFBFBF" d="M140.505,307.976l3.741,12.567v-12.567h2.819v18.702h-3.028l-3.877-11.978v11.978h-2.819v-18.702H140.505z
			"/>
		<path fill="#BFBFBF" d="M154.015,326.917c-1.243,0-2.299-0.436-3.169-1.306c-0.87-0.87-1.305-1.921-1.305-3.154v-10.202
			c0-1.24,0.438-2.299,1.312-3.169s1.929-1.306,3.162-1.306c1.243,0,2.297,0.438,3.162,1.312c0.865,0.875,1.297,1.932,1.297,3.162
			v2.134h-2.923v-2.191c0-0.447-0.159-0.83-0.477-1.148c-0.318-0.315-0.701-0.478-1.148-0.478c-0.448,0-0.828,0.16-1.141,0.478
			c-0.313,0.318-0.47,0.701-0.47,1.148v10.229c0,0.447,0.157,0.828,0.47,1.143c0.313,0.313,0.693,0.471,1.141,0.471
			c0.447,0,0.83-0.156,1.148-0.471c0.318-0.312,0.477-0.693,0.477-1.143v-2.579h2.923v2.609c0,1.243-0.438,2.297-1.312,3.161
			C156.287,326.485,155.238,326.917,154.015,326.917z"/>
	</g>
	<g>
		<path fill="#BFBFBF" d="M607.451,230.917c0,1.232-0.434,2.287-1.297,3.162c-0.865,0.875-1.909,1.312-3.133,1.312h-4.432v-18.703
			h4.432c1.231,0,2.278,0.438,3.141,1.312c0.859,0.875,1.289,1.924,1.289,3.146V230.917z M601.412,232.604h1.699
			c0.445,0,0.824-0.162,1.134-0.485c0.308-0.323,0.462-0.703,0.462-1.141v-9.784c0-0.447-0.156-0.83-0.469-1.148
			c-0.314-0.316-0.689-0.478-1.127-0.478h-1.699V232.604L601.412,232.604z"/>
		<path fill="#BFBFBF" d="M613.01,231.097l-0.684,4.296h-2.938l3.179-18.688h3.878l3.132,18.688h-2.964l-0.66-4.296H613.01z
			 M614.491,220.985l-1.044,7.368h2.088L614.491,220.985z"/>
		<path fill="#BFBFBF" d="M622.307,219.537h-2.998v-2.833h8.802v2.833h-2.983v15.855h-2.818L622.307,219.537L622.307,219.537z"/>
		<path fill="#BFBFBF" d="M631.43,231.097l-0.684,4.296h-2.938l3.179-18.688h3.878l3.132,18.688h-2.964l-0.66-4.296H631.43z
			 M632.911,220.985l-1.044,7.368h2.088L632.911,220.985z"/>
	</g>
	<g>
		<path fill="#BFBFBF" d="M318.662,326.916c-1.243,0-2.299-0.435-3.169-1.306c-0.87-0.869-1.307-1.921-1.307-3.154v-10.201
			c0-1.241,0.438-2.299,1.312-3.17c0.875-0.869,1.929-1.305,3.162-1.305c1.243,0,2.297,0.438,3.162,1.312
			c0.864,0.875,1.297,1.932,1.297,3.162v2.135h-2.923v-2.193c0-0.447-0.159-0.83-0.479-1.148c-0.316-0.315-0.701-0.477-1.146-0.477
			c-0.448,0-0.828,0.159-1.143,0.477c-0.312,0.318-0.47,0.701-0.47,1.148v10.23c0,0.447,0.157,0.828,0.47,1.143
			c0.313,0.312,0.693,0.47,1.143,0.47c0.445,0,0.83-0.156,1.146-0.47c0.318-0.312,0.479-0.693,0.479-1.143v-2.578h2.923v2.607
			c0,1.243-0.438,2.297-1.312,3.162S319.885,326.916,318.662,326.916z"/>
		<path fill="#BFBFBF" d="M329.877,307.99c1.571,0,2.724,0.432,3.46,1.297c0.646,0.756,0.969,1.812,0.969,3.162v2.715
			c0,1.322-0.502,2.441-1.506,3.355l2.088,8.157h-3.048l-1.709-7.038c-0.08,0-0.164,0-0.253,0h-1.625v7.038h-2.819V307.99H329.877
			L329.877,307.99z M331.562,312.494c0-1.084-0.536-1.625-1.61-1.625h-1.7v5.98h1.7c0.447,0,0.828-0.159,1.141-0.479
			c0.313-0.315,0.471-0.701,0.471-1.146L331.562,312.494L331.562,312.494z"/>
		<path fill="#BFBFBF" d="M337.305,326.678v-18.703h8.024v2.834h-5.205v5.102h3.803v2.834h-3.803v5.101h5.205v2.834L337.305,326.678
			L337.305,326.678z"/>
		<path fill="#BFBFBF" d="M350.888,322.382l-0.685,4.296h-2.938l3.179-18.688h3.877l3.132,18.688h-2.964l-0.66-4.296H350.888z
			 M352.369,312.271l-1.044,7.368h2.088L352.369,312.271z"/>
		<path fill="#BFBFBF" d="M360.184,310.824h-2.998v-2.834h8.802v2.834h-2.983v15.854h-2.819L360.184,310.824L360.184,310.824z"/>
		<path fill="#BFBFBF" d="M368.252,326.678v-18.703h8.024v2.834h-5.205v5.102h3.803v2.834h-3.803v5.101h5.205v2.834L368.252,326.678
			L368.252,326.678z"/>
	</g>
	<g>
		<path fill="#BFBFBF" d="M386.397,52.443l-0.687,4.296h-2.936l3.177-18.688h3.877l3.132,18.688H390l-0.66-4.296H386.397z
			 M387.878,42.33l-1.044,7.368h2.088L387.878,42.33z"/>
		<path fill="#BFBFBF" d="M404.194,52.264c0,1.23-0.434,2.285-1.297,3.16c-0.865,0.875-1.909,1.312-3.134,1.312h-4.43V38.034h4.43
			c1.233,0,2.28,0.438,3.142,1.312c0.858,0.873,1.29,1.924,1.29,3.146L404.194,52.264L404.194,52.264z M398.154,53.949h1.698
			c0.447,0,0.825-0.162,1.135-0.485c0.308-0.321,0.462-0.701,0.462-1.141v-9.784c0-0.447-0.157-0.83-0.472-1.146
			c-0.312-0.318-0.688-0.479-1.126-0.479h-1.698L398.154,53.949L398.154,53.949z"/>
		<path fill="#BFBFBF" d="M415.529,52.264c0,1.23-0.434,2.285-1.297,3.16c-0.865,0.875-1.909,1.312-3.134,1.312h-4.43V38.034h4.43
			c1.233,0,2.28,0.438,3.142,1.312c0.858,0.873,1.29,1.924,1.29,3.146L415.529,52.264L415.529,52.264z M409.489,53.949h1.7
			c0.445,0,0.823-0.162,1.133-0.485c0.308-0.321,0.462-0.701,0.462-1.141v-9.784c0-0.447-0.157-0.83-0.47-1.146
			c-0.313-0.318-0.688-0.479-1.126-0.479h-1.7L409.489,53.949L409.489,53.949z"/>
	</g>
	<g>
		<path fill="#BFBFBF" d="M764.561,186.887h-2.818v-18.689h2.818V186.887z"/>
		<path fill="#BFBFBF" d="M770.245,168.184l3.741,12.567v-12.567h2.816v18.702h-3.025l-3.878-11.978v11.978h-2.819v-18.702H770.245z
			"/>
		<path fill="#BFBFBF" d="M783.77,168.198c1.372,0,2.468,0.433,3.281,1.298c0.756,0.824,1.133,1.879,1.133,3.162v2.714
			c0,1.233-0.43,2.287-1.289,3.162c-0.858,0.875-1.9,1.312-3.125,1.312h-1.625v7.039h-2.818v-18.688H783.77L783.77,168.198z
			 M785.455,172.702c0-0.487-0.146-0.88-0.439-1.179c-0.294-0.298-0.685-0.447-1.172-0.447h-1.699v5.981h1.699
			c0.447,0,0.828-0.159,1.143-0.479c0.312-0.317,0.471-0.701,0.471-1.146L785.455,172.702L785.455,172.702z"/>
		<path fill="#BFBFBF" d="M794.881,187.096c-1.243,0-2.297-0.436-3.162-1.301c-0.865-0.862-1.298-1.914-1.298-3.146v-14.452h2.759
			v14.423c0,0.447,0.16,0.827,0.479,1.142c0.315,0.312,0.7,0.471,1.146,0.471c0.447,0,0.827-0.157,1.143-0.471
			c0.312-0.312,0.47-0.692,0.47-1.142v-14.423h2.938v14.452c0,1.253-0.438,2.307-1.312,3.162
			C797.17,186.667,796.113,187.096,794.881,187.096z"/>
		<path fill="#BFBFBF" d="M804.604,171.031h-2.996v-2.833h8.8v2.833h-2.982v15.854h-2.817v-15.854H804.604z"/>
	</g>
	<g>
		<path fill="#BFBFBF" d="M577.609,85.914c1.568,0,2.724,0.434,3.46,1.297c0.646,0.756,0.97,1.812,0.97,3.162v2.715
			c0,1.322-0.503,2.441-1.507,3.355l2.088,8.158h-3.048l-1.71-7.039c-0.079,0-0.164,0-0.253,0h-1.626v7.039h-2.819V85.913
			L577.609,85.914L577.609,85.914z M579.295,90.417c0-1.084-0.537-1.625-1.611-1.625h-1.698v5.98h1.698
			c0.447,0,0.828-0.159,1.143-0.479c0.312-0.315,0.471-0.701,0.471-1.146L579.295,90.417L579.295,90.417z"/>
		<path fill="#BFBFBF" d="M585.035,104.602V85.899h8.023v2.834h-5.203v5.102h3.803v2.834h-3.803v5.102h5.203v2.834L585.035,104.602
			L585.035,104.602z"/>
		<path fill="#BFBFBF" d="M598.164,85.899l3.74,12.569V85.899h2.817v18.703h-3.026l-3.877-11.979v11.979h-2.819V85.899H598.164z"/>
		<path fill="#BFBFBF" d="M616.104,100.126c0,1.234-0.433,2.287-1.298,3.162c-0.863,0.875-1.907,1.312-3.132,1.312h-4.43V85.898
			h4.43c1.232,0,2.279,0.438,3.139,1.312c0.86,0.875,1.291,1.924,1.291,3.147V100.126z M610.062,101.813h1.699
			c0.447,0,0.824-0.161,1.135-0.484c0.309-0.322,0.463-0.703,0.463-1.141v-9.784c0-0.448-0.157-0.83-0.473-1.148
			c-0.312-0.316-0.688-0.478-1.125-0.478h-1.699V101.813z"/>
		<path fill="#BFBFBF" d="M618.578,104.602V85.899h8.022v2.834h-5.204v5.102h3.805v2.834h-3.805v5.102h5.204v2.834L618.578,104.602
			L618.578,104.602z"/>
		<path fill="#BFBFBF" d="M632.986,85.914c1.568,0,2.724,0.434,3.46,1.297c0.646,0.756,0.97,1.812,0.97,3.162v2.715
			c0,1.322-0.503,2.441-1.507,3.355l2.088,8.158h-3.048l-1.71-7.039c-0.079,0-0.164,0-0.253,0h-1.626v7.039h-2.819V85.913
			L632.986,85.914L632.986,85.914z M634.672,90.417c0-1.084-0.537-1.625-1.611-1.625h-1.698v5.98h1.698
			c0.447,0,0.828-0.159,1.143-0.479c0.312-0.315,0.471-0.701,0.471-1.146L634.672,90.417L634.672,90.417z"/>
	</g>
</g>
</svg>
