<?xml version="1.0" encoding="utf-8"?>
<!-- Generator: Adobe Illustrator 14.0.0, SVG Export Plug-In . SVG Version: 6.00 Build 43363)  -->
<!DOCTYPE svg PUBLIC "-//W3C//DTD SVG 1.1//EN" "http://www.w3.org/Graphics/SVG/1.1/DTD/svg11.dtd">
<svg version="1.1" id="Layer_1" xmlns="http://www.w3.org/2000/svg" xmlns:xlink="http://www.w3.org/1999/xlink" x="0px" y="0px"
	 width="890.447px" height="280.484px" viewBox="0 0 890.447 280.484" enable-background="new 0 0 890.447 280.484"
	 xml:space="preserve">
<path fill="#5C8BEE" d="M100.65,139.459c0-4.285,3.486-7.771,7.771-7.771h39.413v5.439l24.834-10.438l-24.834-10.439v5.438h-39.413
	c-9.799,0-17.771,7.976-17.771,17.771c0,9.8,7.972,17.771,17.771,17.771h80.791v-10h-80.791
	C104.136,147.23,100.65,143.742,100.65,139.459z"/>
<polygon fill="#5C8BEE" points="331.821,125.252 308.994,139.554 335.182,145.863 334.306,140.49 634.75,91.496 633.141,81.627 
	332.697,130.621 "/>
<polygon fill="#5C8BEE" points="825.936,114.966 780.07,99.605 781.848,94.462 754.967,96.225 775.027,114.2 776.805,109.059 
	822.672,124.417 "/>
<g>
	<path d="M684.365,97.113l-9.545-53.396h8.438l6.695,41.621l6.75-41.621h8.445l-9.721,53.396H684.365L684.365,97.113z"/>
</g>
<g>
	<path d="M231.792,163.113h-8.055v-53.438h11.559l7.506,38.389l7.205-38.389h11.104v53.438h-8.054v-33.579l-6.988,33.579h-6.477
		l-7.799-33.493L231.792,163.113L231.792,163.113z"/>
</g>
<path d="M689.988,130.453c-33.771,0-61.229-27.466-61.229-61.229C628.759,35.466,656.226,8,689.988,8
	c33.762,0,61.227,27.465,61.227,61.227C751.215,102.991,723.748,130.453,689.988,130.453L689.988,130.453z M689.988,16.006
	c-29.354,0-53.229,23.876-53.229,53.227c0,29.354,23.877,53.229,53.229,53.229c29.35,0,53.227-23.878,53.227-53.229
	C743.215,39.883,719.338,16.006,689.988,16.006L689.988,16.006z"/>
<g>
	<path d="M684.365,240.607l-9.545-53.396h8.438l6.695,41.621l6.75-41.621h8.445l-9.721,53.396H684.365L684.365,240.607z"/>
</g>
<path d="M689.988,273.952c-33.771,0-61.229-27.469-61.229-61.229c0-33.761,27.467-61.229,61.229-61.229
	c33.762,0,61.227,27.467,61.227,61.229C751.215,246.486,723.748,273.952,689.988,273.952L689.988,273.952z M689.988,159.504
	c-29.354,0-53.229,23.876-53.229,53.227c0,29.354,23.877,53.229,53.229,53.229c29.35,0,53.227-23.877,53.227-53.229
	C743.215,183.381,719.338,159.504,689.988,159.504L689.988,159.504z"/>
<path d="M242.424,196.453c-33.76,0-61.225-27.466-61.225-61.229c0-33.762,27.465-61.229,61.225-61.229
	c33.76,0,61.225,27.466,61.225,61.229C303.649,168.991,276.184,196.453,242.424,196.453L242.424,196.453z M242.424,82.006
	c-29.349,0-53.225,23.876-53.225,53.229c0,29.354,23.876,53.229,53.225,53.229c29.349,0,53.225-23.877,53.225-53.229
	S271.773,82.006,242.424,82.006L242.424,82.006z"/>
<g>
	<path d="M38.009,164.991c0,2.115-0.819,3.922-2.458,5.422c-1.639,1.5-3.616,2.25-5.933,2.25h-8.39v-32.062h8.391
		c2.335,0,4.317,0.75,5.947,2.25c1.629,1.5,2.444,3.303,2.444,5.396L38.009,164.991L38.009,164.991z M26.567,167.884h3.221
		c0.848,0,1.563-0.271,2.147-0.831c0.583-0.556,0.876-1.203,0.876-1.953v-16.771c0-0.771-0.297-1.422-0.89-1.971
		c-0.593-0.549-1.304-0.813-2.133-0.813h-3.221V167.884z"/>
	<path d="M41.682,172.663v-32.062h7.995c2.109,0,4.012,0.504,5.707,1.512c1.45,0.854,2.486,2.175,3.108,3.964
		c0.339,0.954,0.508,2.09,0.508,3.396c0,2.146-0.631,3.867-1.893,5.165c-0.528,0.546-1.149,0.964-1.865,1.253
		c1.187,0.405,2.193,1.225,3.023,2.434c0.545,0.812,0.951,1.875,1.215,3.17c0.131,0.666,0.197,1.4,0.197,2.229
		c0,2.024-0.424,3.75-1.271,5.165c-0.66,1.104-1.593,1.993-2.797,2.657c-1.356,0.75-2.703,1.125-4.04,1.125L41.682,172.663
		L41.682,172.663L41.682,172.663z M47.445,153.693h2.232c1.657,0,2.769-0.729,3.333-2.199c0.207-0.545,0.311-1.219,0.311-2.021
		c0-1.33-0.358-2.335-1.074-3.021c-0.66-0.631-1.516-0.945-2.571-0.945h-2.232L47.445,153.693L47.445,153.693z M47.445,167.884
		h2.232c1.808,0,3.061-0.846,3.757-2.528c0.245-0.574,0.367-1.238,0.367-1.988c0-1.791-0.377-3.1-1.13-3.911
		c-0.678-0.75-1.677-1.125-2.995-1.125h-2.232L47.445,167.884L47.445,167.884z"/>
</g>
<path fill="#231F20" d="M39.585,106.287C18.575,106.287,5,111.706,5,120.094v49.714c0,7.869,13.223,16.365,34.585,16.365
	s34.584-8.496,34.584-16.365v-49.714C74.169,111.706,60.596,106.287,39.585,106.287z M39.591,112.287
	c20.195,0,28.578,5.085,28.578,7.808c0,2.727-8.384,7.812-28.584,7.812S11,122.819,11,120.094
	C11,117.372,19.385,112.287,39.591,112.287z M39.585,180.174c-18.496,0-28.585-6.85-28.585-10.365v-41.306
	c5.911,3.419,15.886,5.401,28.585,5.401c12.698,0,22.673-1.982,28.584-5.401v41.306C68.169,173.324,58.08,180.174,39.585,180.174z"
	/>
<g>
	
		<rect x="473.998" y="184.928" transform="matrix(0.9869 0.1612 -0.1612 0.9869 36.9186 -75.1423)" fill="#5C8BEE" width="14.998" height="9.998"/>
	
		<rect x="498.69" y="188.925" transform="matrix(0.9869 0.1613 -0.1613 0.9869 37.9007 -79.0963)" fill="#5C8BEE" width="14.999" height="9.997"/>
	
		<rect x="572.68" y="201.069" transform="matrix(0.9869 0.1613 -0.1613 0.9869 40.8406 -90.8932)" fill="#5C8BEE" width="15.001" height="9.997"/>
	<polygon fill="#5C8BEE" points="598.561,198.453 597.684,203.825 597.275,203.759 595.664,213.628 596.072,213.691 
		595.195,219.063 621.385,212.763 	"/>
	
		<rect x="548.044" y="196.977" transform="matrix(0.9869 0.1612 -0.1612 0.9869 39.83 -86.9224)" fill="#5C8BEE" width="14.998" height="9.999"/>
	
		<rect x="449.316" y="180.918" transform="matrix(0.9869 0.1613 -0.1613 0.9869 35.9797 -71.2654)" fill="#5C8BEE" width="14.999" height="9.999"/>
	
		<rect x="523.378" y="192.982" transform="matrix(0.9869 0.1611 -0.1611 0.9869 38.8242 -82.9296)" fill="#5C8BEE" width="14.999" height="9.999"/>
	
		<rect x="424.662" y="176.86" transform="matrix(0.9869 0.1612 -0.1612 0.9869 34.9729 -67.2939)" fill="#5C8BEE" width="14.998" height="10.001"/>
	
		<rect x="399.983" y="172.832" transform="matrix(0.9869 0.1612 -0.1612 0.9869 33.985 -63.3439)" fill="#5C8BEE" width="14.998" height="9.999"/>
	
		<rect x="375.313" y="168.8" transform="matrix(0.9869 0.1612 -0.1612 0.9869 33.0254 -59.4397)" fill="#5C8BEE" width="14.999" height="10.002"/>
	<path fill="#5C8BEE" d="M298.14,176.965l7.938,6.084c5.103-7.434,8.966-15.854,11.205-25.021l-9.896-1.614
		C305.462,163.909,302.285,170.818,298.14,176.965z"/>
	<path fill="#5C8BEE" d="M315.308,190.121l9.933,7.604c7.421-10.521,12.92-22.599,15.892-35.811l-12.36-2.021
		C326.172,171.018,321.526,181.201,315.308,190.121z"/>
	<path fill="#5C8BEE" d="M334.421,204.768l11.913,9.127c9.988-13.902,17.304-30.012,21.042-47.687l-14.819-2.422
		C349.25,178.943,342.959,192.773,334.421,204.768z"/>
</g>
<rect x="475.993" y="79.531" transform="matrix(0.987 -0.1609 0.1609 0.987 -7.3017 78.9079)" fill="#5C8BEE" width="15.001" height="10"/>
<rect x="500.646" y="75.536" transform="matrix(0.987 -0.1609 0.1609 0.987 -6.3375 82.8072)" fill="#5C8BEE" width="15.004" height="10"/>
<rect x="574.68" y="63.451" transform="matrix(0.987 -0.1609 0.1609 0.987 -3.4286 94.5613)" fill="#5C8BEE" width="15.004" height="10"/>
<polygon fill="#5C8BEE" points="623.4,61.766 597.211,55.458 598.086,60.827 597.68,60.895 599.289,70.763 599.695,70.697 
	600.57,76.068 "/>
<rect x="550.005" y="67.471" transform="matrix(0.987 -0.1609 0.1609 0.987 -4.3964 90.6553)" fill="#5C8BEE" width="15.002" height="10"/>
<rect x="451.344" y="83.648" transform="matrix(0.9869 -0.1611 0.1611 0.9869 -8.2876 75.0647)" fill="#5C8BEE" width="15" height="10.002"/>
<rect x="525.312" y="71.542" transform="matrix(0.987 -0.1609 0.1609 0.987 -5.3737 86.7059)" fill="#5C8BEE" width="15.001" height="10"/>
<rect x="426.659" y="87.552" transform="matrix(0.987 -0.1609 0.1609 0.987 -9.2341 71.0448)" fill="#5C8BEE" width="15.001" height="10"/>
<rect x="401.958" y="91.64" transform="matrix(0.987 -0.1609 0.1609 0.987 -10.2145 67.143)" fill="#5C8BEE" width="15.003" height="10"/>
<rect x="377.293" y="95.64" transform="matrix(0.987 -0.1609 0.1609 0.987 -11.1787 63.2183)" fill="#5C8BEE" width="15.005" height="10"/>
<path fill="#5C8BEE" d="M309.387,118.035l9.896-1.613c-2.235-9.169-6.104-17.59-11.194-25.021l-7.94,6.08
	C304.289,103.628,307.463,110.536,309.387,118.035z"/>
<path fill="#5C8BEE" d="M330.767,114.55l12.361-2.017c-2.966-13.214-8.462-25.291-15.88-35.812l-9.934,7.604
	C323.533,93.248,328.175,103.436,330.767,114.55z"/>
<path fill="#5C8BEE" d="M354.559,110.67l14.819-2.417c-3.733-17.677-11.042-33.783-21.03-47.688l-11.915,9.125
	C344.969,81.682,351.255,95.516,354.559,110.67z"/>
<path d="M864.363,133.74c0,0,8.648-9.796,8.648-27.768c0-10.745-8.844-19.491-19.486-19.491c-10.846,0-19.496,8.845-19.496,19.491
	c0,17.972,8.65,27.768,8.65,27.768c0,13.5-21.68,9.315-21.68,24.342v4.372c0,1.237,0.949,2.188,2.188,2.188h60.761
	c1.233,0,2.186-0.95,2.186-2.188v-4.372C886.041,142.868,864.363,147.24,864.363,133.74z"/>
<g>
	<path fill="#BFBFBF" d="M123.738,189.992c0.02,1.304-0.318,2.416-1.014,3.342c-0.458,0.627-1.104,1.067-1.939,1.327
		c-0.447,0.14-0.969,0.208-1.566,0.208c-1.104,0-2.019-0.271-2.744-0.819c-0.607-0.445-1.086-1.057-1.439-1.825
		c-0.353-0.771-0.559-1.652-0.619-2.646l2.685-0.194c0.119,1.092,0.407,1.882,0.865,2.369c0.338,0.369,0.726,0.545,1.164,0.524
		c0.616-0.021,1.108-0.324,1.477-0.911c0.188-0.288,0.283-0.701,0.283-1.239c0-0.772-0.353-1.547-1.059-2.312
		c-0.557-0.527-1.392-1.318-2.505-2.374c-0.935-0.905-1.596-1.717-1.984-2.436c-0.417-0.807-0.626-1.683-0.626-2.627
		c0-1.701,0.572-2.988,1.715-3.864c0.706-0.527,1.581-0.791,2.625-0.791c1.004,0,1.864,0.224,2.58,0.671
		c0.557,0.348,1.007,0.836,1.35,1.462c0.343,0.626,0.549,1.347,0.619,2.163l-2.699,0.49c-0.08-0.767-0.298-1.361-0.656-1.791
		c-0.259-0.309-0.632-0.461-1.119-0.461c-0.517,0-0.91,0.229-1.178,0.688c-0.219,0.367-0.328,0.825-0.328,1.372
		c0,0.854,0.368,1.727,1.104,2.608c0.278,0.34,0.696,0.734,1.253,1.192c0.656,0.547,1.089,0.931,1.297,1.148
		c0.696,0.693,1.233,1.382,1.611,2.058c0.179,0.318,0.323,0.612,0.433,0.88C123.589,188.868,123.729,189.467,123.738,189.992z"/>
	<path fill="#BFBFBF" d="M128.481,186.816l-3.773-10.873h3.103l2.088,6.711l2.073-6.711h3.117l-3.788,10.873v7.83h-2.819
		L128.481,186.816L128.481,186.816z"/>
	<path fill="#BFBFBF" d="M140.505,175.943l3.741,12.57v-12.57h2.819v18.703h-3.028l-3.877-11.979v11.979h-2.819v-18.703H140.505z"/>
	<path fill="#BFBFBF" d="M154.015,194.885c-1.243,0-2.299-0.436-3.169-1.306c-0.87-0.869-1.305-1.922-1.305-3.153v-10.199
		c0-1.244,0.438-2.302,1.312-3.17c0.874-0.87,1.929-1.307,3.162-1.307c1.243,0,2.297,0.438,3.162,1.312
		c0.865,0.875,1.297,1.929,1.297,3.162v2.133h-2.923v-2.193c0-0.446-0.159-0.829-0.477-1.146c-0.318-0.318-0.701-0.479-1.148-0.479
		c-0.448,0-0.828,0.158-1.141,0.479c-0.313,0.316-0.47,0.699-0.47,1.146v10.232c0,0.445,0.157,0.827,0.47,1.141
		c0.313,0.312,0.693,0.47,1.141,0.47c0.447,0,0.83-0.154,1.148-0.47c0.318-0.312,0.477-0.692,0.477-1.141v-2.581h2.923v2.608
		c0,1.242-0.438,2.299-1.312,3.162C156.288,194.45,155.238,194.885,154.015,194.885z"/>
</g>
<g>
	<path fill="#BFBFBF" d="M768.561,76.383h-2.817V57.695h2.817V76.383z"/>
	<path fill="#BFBFBF" d="M774.245,57.68l3.741,12.568V57.68h2.815v18.701h-3.024l-3.878-11.978v11.978h-2.819V57.68H774.245
		L774.245,57.68z"/>
	<path fill="#BFBFBF" d="M787.77,57.695c1.372,0,2.469,0.433,3.281,1.297c0.756,0.825,1.133,1.879,1.133,3.162v2.715
		c0,1.232-0.43,2.287-1.289,3.162c-0.857,0.875-1.899,1.312-3.125,1.312h-1.625v7.039h-2.817V57.694L787.77,57.695L787.77,57.695z
		 M789.455,62.198c0-0.486-0.146-0.881-0.439-1.179c-0.294-0.298-0.685-0.447-1.172-0.447h-1.699v5.979h1.699
		c0.447,0,0.828-0.158,1.144-0.479c0.312-0.316,0.471-0.701,0.471-1.147L789.455,62.198L789.455,62.198z"/>
	<path fill="#BFBFBF" d="M798.881,76.592c-1.243,0-2.297-0.434-3.162-1.298c-0.865-0.862-1.298-1.914-1.298-3.146V57.696h2.759
		v14.422c0,0.447,0.16,0.828,0.479,1.142c0.314,0.312,0.7,0.473,1.146,0.473c0.447,0,0.827-0.157,1.144-0.473
		c0.312-0.312,0.47-0.691,0.47-1.142V57.696h2.938v14.451c0,1.254-0.438,2.308-1.312,3.162
		C801.168,76.163,800.113,76.592,798.881,76.592z"/>
	<path fill="#BFBFBF" d="M808.604,60.528h-2.995v-2.833h8.8v2.833h-2.982v15.854h-2.816V60.528H808.604z"/>
</g>
</svg>
