<?xml version="1.0" encoding="utf-8"?>
<!-- Generator: Adobe Illustrator 14.0.0, SVG Export Plug-In . SVG Version: 6.00 Build 43363)  -->
<!DOCTYPE svg PUBLIC "-//W3C//DTD SVG 1.1//EN" "http://www.w3.org/Graphics/SVG/1.1/DTD/svg11.dtd">
<svg version="1.1" id="Layer_1" xmlns="http://www.w3.org/2000/svg" xmlns:xlink="http://www.w3.org/1999/xlink" x="0px" y="0px"
	 width="890.447px" height="236.988px" viewBox="0 0 890.447 236.988" enable-background="new 0 0 890.447 236.988"
	 xml:space="preserve">
<polygon fill="#5C8BEE" points="555.114,52.118 525.116,97.013 529.616,100.076 507.007,114.724 512.351,88.322 516.85,91.385 
	546.849,46.49 "/>
<path fill="#BED1F8" d="M570.51,49.536c0,3.312-2.687,6-6,6h-76.788c-3.312,0-6-2.688-6-6V25.649c0-3.313,2.688-6,6-6h76.788
	c3.313,0,6,2.687,6,6V49.536z"/>
<g>
	<path d="M327.363,39.252v7.92h-2.819V28.484h2.819v7.935h3.397v-7.935h2.819v18.688h-2.819v-7.92H327.363z"/>
	<path d="M338.847,31.317h-2.998v-2.833h8.803v2.833h-2.983v15.855h-2.819L338.847,31.317L338.847,31.317z"/>
	<path d="M349.585,31.317h-2.998v-2.833h8.8v2.833h-2.98v15.855h-2.819L349.585,31.317L349.585,31.317z"/>
	<path d="M362.099,28.484c1.372,0,2.469,0.432,3.281,1.297c0.755,0.825,1.133,1.879,1.133,3.162v2.714
		c0,1.233-0.43,2.287-1.29,3.162c-0.857,0.875-1.898,1.312-3.125,1.312h-1.625v7.04h-2.816V28.483L362.099,28.484L362.099,28.484z
		 M363.785,32.988c0-0.487-0.147-0.88-0.44-1.178s-0.684-0.447-1.171-0.447h-1.7v5.981h1.7c0.447,0,0.828-0.159,1.144-0.478
		c0.312-0.318,0.47-0.701,0.47-1.148L363.785,32.988L363.785,32.988z"/>
	<path d="M368.452,36.433h2.819v2.834h-2.819V36.433z M368.452,44.368h2.819v2.804h-2.819V44.368z"/>
	<path d="M381.023,27.29h2.299l-7.801,20.448h-2.301L381.023,27.29z"/>
	<path d="M393.06,27.29h2.302l-7.804,20.448h-2.298L393.06,27.29z"/>
	<path d="M407.692,47.172h-3.026l-2.163-5.951l-2.18,5.951h-3.026l3.669-9.396l-3.669-9.292h3.117l2.088,5.772l2.073-5.772h3.117
		l-3.669,9.292L407.692,47.172z"/>
	<path d="M413.405,39.342l-3.773-10.873h3.104l2.088,6.711l2.073-6.711h3.114l-3.788,10.873v7.83h-2.816L413.405,39.342
		L413.405,39.342z"/>
	<path d="M430.185,28.484v2.833l-5.188,13.05h5.188v2.805h-8.23V44.35l5.206-13.047l-5.206,0.015v-2.833L430.185,28.484
		L430.185,28.484z"/>
	<path d="M432.123,44.368h2.819v2.819h-2.819V44.368z"/>
	<path d="M441.355,47.411c-1.243,0-2.302-0.436-3.172-1.305c-0.867-0.87-1.305-1.921-1.305-3.154V32.75
		c0-1.243,0.438-2.299,1.312-3.169s1.929-1.305,3.16-1.305c1.242,0,2.299,0.438,3.161,1.312c0.865,0.875,1.3,1.929,1.3,3.162v2.133
		h-2.926V32.69c0-0.447-0.156-0.83-0.477-1.148c-0.318-0.318-0.701-0.477-1.148-0.477c-0.445,0-0.828,0.159-1.141,0.477
		s-0.47,0.701-0.47,1.148v10.232c0,0.447,0.155,0.828,0.47,1.141c0.312,0.313,0.693,0.47,1.141,0.47c0.448,0,0.83-0.156,1.148-0.47
		c0.318-0.313,0.477-0.693,0.477-1.141v-2.581h2.926v2.61c0,1.243-0.438,2.297-1.312,3.162
		C443.627,46.978,442.579,47.411,441.355,47.411z"/>
	<path d="M452.542,28.245c1.243,0,2.299,0.438,3.169,1.312s1.305,1.929,1.305,3.162v10.202c0,1.243-0.438,2.299-1.312,3.169
		c-0.875,0.871-1.929,1.305-3.162,1.305c-1.243,0-2.297-0.438-3.162-1.312s-1.298-1.929-1.298-3.162V32.719
		c0-1.243,0.438-2.299,1.312-3.169C450.268,28.68,451.318,28.245,452.542,28.245z M454.078,32.66c0-0.447-0.157-0.828-0.47-1.141
		c-0.313-0.313-0.694-0.47-1.144-0.47s-0.831,0.157-1.146,0.47c-0.318,0.313-0.479,0.693-0.479,1.141v10.23
		c0,0.448,0.159,0.828,0.479,1.141c0.315,0.312,0.698,0.47,1.146,0.47s0.828-0.156,1.144-0.47c0.312-0.313,0.47-0.693,0.47-1.141
		V32.66z"/>
	<path d="M462.31,47.172h-2.816V28.469h4.045l2.627,13.438l2.521-13.438h3.889v18.703h-2.819V35.419l-2.445,11.753h-2.267
		l-2.729-11.723L462.31,47.172L462.31,47.172z"/>
	<path d="M482.309,27.29h2.302l-7.804,20.448h-2.298L482.309,27.29z"/>
	<path d="M498.442,36.359l-0.586,3.549h2.9l-0.433,2.834h-2.938l-0.729,4.43h-2.812l0.731-4.43h-2.446l-0.729,4.43h-2.812l0.73-4.43
		h-2.774l0.434-2.834h2.811l0.585-3.549h-2.771l0.436-2.834h2.803l0.836-5.071h2.812l-0.836,5.071h2.443l0.836-5.071h2.812
		l-0.836,5.071h2.91l-0.436,2.834H498.442z M495.615,36.359h-2.434l-0.567,3.549h2.431L495.615,36.359z"/>
</g>
<g>
	<path d="M504.56,47.49V27.896h4.424c1.166,0,2.219,0.308,3.154,0.922c0.804,0.521,1.375,1.328,1.721,2.422
		c0.188,0.583,0.279,1.276,0.279,2.078c0,1.312-0.35,2.365-1.047,3.156c-0.292,0.333-0.636,0.589-1.031,0.766
		c0.656,0.25,1.215,0.745,1.674,1.484c0.302,0.5,0.523,1.146,0.672,1.938c0.07,0.406,0.107,0.859,0.107,1.359
		c0,1.24-0.232,2.292-0.703,3.156c-0.363,0.677-0.881,1.219-1.547,1.625c-0.75,0.458-1.495,0.688-2.232,0.688H504.56z
		 M507.747,35.896h1.234c0.916,0,1.529-0.448,1.844-1.344c0.114-0.333,0.172-0.745,0.172-1.234c0-0.812-0.198-1.427-0.594-1.844
		c-0.365-0.385-0.839-0.578-1.422-0.578h-1.234V35.896z M507.747,44.568h1.234c1,0,1.69-0.516,2.076-1.547
		c0.137-0.354,0.203-0.76,0.203-1.219c0-1.094-0.209-1.891-0.625-2.391c-0.375-0.458-0.928-0.688-1.654-0.688h-1.234V44.568z"/>
	<path d="M521.7,27.662c1.301,0,2.408,0.458,3.318,1.375s1.367,2.021,1.367,3.312v10.688c0,1.302-0.459,2.409-1.375,3.32
		c-0.918,0.912-2.021,1.367-3.312,1.367c-1.303,0-2.406-0.458-3.312-1.375c-0.904-0.917-1.357-2.021-1.357-3.312V32.349
		c0-1.302,0.457-2.409,1.375-3.32C519.319,28.118,520.419,27.662,521.7,27.662z M523.31,32.287c0-0.469-0.163-0.867-0.49-1.195
		c-0.328-0.328-0.729-0.492-1.195-0.492s-0.871,0.164-1.203,0.492c-0.334,0.328-0.5,0.727-0.5,1.195v10.719
		c0,0.469,0.166,0.867,0.5,1.195c0.332,0.328,0.734,0.492,1.203,0.492s0.867-0.164,1.195-0.492c0.327-0.328,0.49-0.727,0.49-1.195
		V32.287z"/>
	<path d="M533.606,27.662c1.301,0,2.406,0.458,3.318,1.375c0.91,0.917,1.367,2.021,1.367,3.312v10.688
		c0,1.302-0.459,2.409-1.375,3.32c-0.918,0.912-2.021,1.367-3.312,1.367c-1.305,0-2.406-0.458-3.312-1.375s-1.359-2.021-1.359-3.312
		V32.349c0-1.302,0.457-2.409,1.375-3.32C531.226,28.118,532.325,27.662,533.606,27.662z M535.216,32.287
		c0-0.469-0.164-0.867-0.492-1.195c-0.327-0.328-0.727-0.492-1.193-0.492c-0.47,0-0.871,0.164-1.203,0.492
		c-0.334,0.328-0.5,0.727-0.5,1.195v10.719c0,0.469,0.166,0.867,0.5,1.195c0.332,0.328,0.732,0.492,1.203,0.492
		c0.469,0,0.867-0.164,1.193-0.492c0.328-0.328,0.492-0.727,0.492-1.195V32.287z"/>
	<path d="M543.84,41.279v6.211h-2.953V27.896h2.953v6.984l3.609-6.984h3.146l-4.042,7.992l4.74,11.602h-3.472l-3.103-7.955
		L543.84,41.279z"/>
	<path d="M561.887,42.615c0.021,1.365-0.334,2.531-1.062,3.5c-0.479,0.656-1.156,1.12-2.031,1.391
		c-0.469,0.146-1.016,0.219-1.641,0.219c-1.156,0-2.115-0.286-2.875-0.859c-0.638-0.469-1.141-1.106-1.509-1.914
		c-0.369-0.807-0.587-1.731-0.647-2.773l2.812-0.203c0.125,1.142,0.429,1.969,0.906,2.481c0.354,0.388,0.76,0.571,1.219,0.55
		c0.646-0.021,1.161-0.339,1.549-0.954c0.195-0.302,0.297-0.735,0.297-1.298c0-0.813-0.37-1.621-1.109-2.424
		c-0.584-0.553-1.459-1.382-2.625-2.487c-0.979-0.949-1.672-1.798-2.078-2.549c-0.438-0.845-0.656-1.762-0.656-2.752
		c0-1.783,0.601-3.133,1.799-4.05c0.737-0.553,1.654-0.829,2.75-0.829c1.052,0,1.951,0.234,2.701,0.703
		c0.584,0.365,1.057,0.875,1.414,1.531c0.359,0.656,0.575,1.412,0.648,2.266l-2.828,0.516c-0.084-0.802-0.312-1.427-0.688-1.875
		c-0.271-0.323-0.662-0.484-1.174-0.484c-0.541,0-0.951,0.24-1.232,0.719c-0.229,0.386-0.344,0.865-0.344,1.438
		c0,0.896,0.385,1.808,1.154,2.734c0.291,0.354,0.729,0.771,1.312,1.25c0.688,0.573,1.141,0.974,1.357,1.203
		c0.729,0.729,1.291,1.448,1.688,2.156c0.188,0.333,0.338,0.641,0.453,0.922C561.73,41.438,561.876,42.063,561.887,42.615z"/>
</g>
<g id="Layer_1_1_">
	<g>
		<path fill="#5C8BEE" d="M536.979,177.98l9.74,2.25c1.562-8.877,1.592-18.143-0.166-27.414l-9.677,2.627
			C538.234,163.066,538.204,170.669,536.979,177.98z"/>
		<path fill="#5C8BEE" d="M558.055,182.844l12.188,2.812c2.396-12.648,2.396-25.918-0.37-39.174l-12.086,3.281
			C560.028,160.955,560.018,172.15,558.055,182.844z"/>
		<path fill="#5C8BEE" d="M581.517,188.257l14.623,3.374c3.334-16.794,3.32-34.482-0.599-52.117l-14.491,3.938
			C584.316,158.611,584.32,173.805,581.517,188.257z"/>
	</g>
	<g>
		<path fill="#5C8BEE" d="M395.344,177.98l-9.741,2.25c-1.562-8.877-1.592-18.143,0.166-27.414l9.68,2.627
			C394.087,163.066,394.117,170.669,395.344,177.98z"/>
		<path fill="#5C8BEE" d="M374.267,182.844l-12.187,2.812c-2.398-12.648-2.397-25.918,0.37-39.174l12.086,3.281
			C372.293,160.955,372.304,172.15,374.267,182.844z"/>
		<path fill="#5C8BEE" d="M350.805,188.257l-14.623,3.374c-3.334-16.794-3.317-34.482,0.602-52.117l14.491,3.938
			C348.005,158.611,348.001,173.805,350.805,188.257z"/>
	</g>
</g>
<g>
	<g>
		<path d="M684.365,194.646l-9.545-53.396h8.438l6.693,41.621l6.75-41.621h8.445l-9.719,53.396H684.365L684.365,194.646z"/>
	</g>
	<path d="M689.988,227.988c-33.771,0-61.229-27.465-61.229-61.229c0-33.759,27.467-61.225,61.229-61.225
		c33.762,0,61.227,27.465,61.227,61.225C751.215,200.525,723.748,227.988,689.988,227.988L689.988,227.988z M689.988,113.54
		c-29.354,0-53.229,23.876-53.229,53.224c0,29.354,23.877,53.229,53.229,53.229c29.35,0,53.227-23.877,53.227-53.229
		C743.215,137.417,719.338,113.54,689.988,113.54L689.988,113.54z"/>
</g>
<g>
	<g>
		<path d="M231.792,194.646h-8.055v-53.438h11.559l7.506,38.386l7.205-38.386h11.104v53.438h-8.054v-33.58l-6.988,33.58h-6.477
			l-7.799-33.494L231.792,194.646L231.792,194.646z"/>
	</g>
	<path d="M242.424,227.988c-33.76,0-61.225-27.465-61.225-61.229c0-33.759,27.465-61.225,61.225-61.225
		c33.76,0,61.225,27.465,61.225,61.225C303.649,200.525,276.184,227.988,242.424,227.988L242.424,227.988z M242.424,113.54
		c-29.349,0-53.225,23.876-53.225,53.224c0,29.354,23.876,53.229,53.225,53.229c29.349,0,53.225-23.877,53.225-53.229
		C295.649,137.417,271.773,113.54,242.424,113.54L242.424,113.54z"/>
</g>
<polygon fill="#5C8BEE" points="469.509,111.553 493.126,76.247 488.626,73.184 511.235,58.536 505.892,84.938 501.393,81.875 
	480.388,113.275 "/>
<g>
	<path d="M466.247,227.988c-33.76,0-61.225-27.465-61.225-61.229c0-33.759,27.465-61.225,61.225-61.225s61.225,27.465,61.225,61.225
		C527.472,200.525,500.007,227.988,466.247,227.988L466.247,227.988z M466.247,113.54c-29.349,0-53.225,23.876-53.225,53.224
		c0,29.354,23.876,53.229,53.225,53.229s53.225-23.877,53.225-53.229C519.472,137.417,495.596,113.54,466.247,113.54L466.247,113.54
		z"/>
	<g>
		<path d="M465.438,137.24c4.488,0,7.784,1.236,9.889,3.709c1.847,2.158,2.77,5.171,2.77,9.033v7.756
			c0,3.777-1.435,6.975-4.304,9.588l5.965,23.31h-8.709l-4.883-20.114c-0.229,0-0.469,0-0.728,0h-4.645v20.114h-8.054V137.24
			H465.438z M470.253,150.109c0-3.096-1.534-4.646-4.603-4.646h-4.858v17.088h4.858c1.276,0,2.362-0.453,3.26-1.361
			c0.895-0.908,1.342-2.002,1.342-3.281L470.253,150.109L470.253,150.109z"/>
	</g>
</g>
<path fill="#231F20" d="M574.391,67.172h43.824c8.822,0,16-7.178,16-16v-28c0-8.822-7.178-16-16-16H314.28c-8.822,0-16,7.178-16,16
	v28c0,8.822,7.178,16,16,16h151.138l4.245-8H314.28c-4.411,0-8-3.589-8-8v-28c0-4.411,3.589-8,8-8h303.935c4.411,0,8,3.589,8,8v28
	c0,4.411-3.589,8-8,8h-40.101L574.391,67.172z"/>
</svg>
